<svg width="152" height="152" viewBox="0 0 152 152" fill="none" xmlns="http://www.w3.org/2000/svg">
<path d="M104.784 109.486C104.786 108.859 104.53 108.259 104.074 107.829L82.6856 87.6039L82.9719 19.4529C83.09 19.1788 83.1567 18.8773 83.1582 18.5593C83.1733 14.2621 79.2141 10.7466 74.3309 10.7239C74.3188 10.7239 74.3067 10.7239 74.2945 10.7239C69.428 10.7239 65.4581 14.1985 65.4369 18.485C65.4354 18.7865 65.4945 19.0818 65.6051 19.356L65.3188 87.5357L43.7549 107.578C43.2944 108.005 43.0324 108.603 43.0294 109.232L42.9733 121.357L42.8976 139.165C42.8931 140.419 43.9048 141.441 45.1605 141.446C45.1635 141.446 45.1665 141.446 45.1696 141.446C46.4206 141.446 47.437 140.436 47.4415 139.183L47.5082 123.647L54.4164 123.677L54.3543 139.222C54.3498 140.476 55.3631 141.497 56.6172 141.503C56.6202 141.503 56.6233 141.503 56.6263 141.503C57.8774 141.503 58.8937 140.493 58.8982 139.24L58.9603 123.697L65.8519 123.727L65.7853 139.265C65.7808 140.519 66.7925 141.541 68.0482 141.546C68.0512 141.546 68.0542 141.546 68.0573 141.546C69.3083 141.546 70.3247 140.535 70.3292 139.283L70.3959 123.745L77.2981 123.776L77.2314 139.312C77.2269 140.566 78.2387 141.588 79.4943 141.593C79.4973 141.593 79.5003 141.593 79.5034 141.593C80.7545 141.593 81.7708 140.582 81.7753 139.33L81.842 123.795L88.7472 123.826L88.6639 139.354C88.6578 140.61 89.6696 141.632 90.9237 141.638C90.9283 141.638 90.9328 141.638 90.9359 141.638C92.1854 141.638 93.2018 140.629 93.2078 139.378L93.2911 123.845L100.193 123.876L100.115 139.406C100.109 140.661 101.12 141.682 102.374 141.69C102.379 141.69 102.382 141.69 102.387 141.69C103.636 141.69 104.652 140.679 104.658 139.43L104.749 121.626C104.749 121.625 104.749 121.625 104.749 121.623C104.749 121.622 104.749 121.622 104.749 121.62L104.784 109.486ZM47.5672 110.235L69.1311 90.1925C69.1372 90.1864 69.1387 90.1788 69.1448 90.1743C69.3508 89.9789 69.5189 89.7441 69.6416 89.4836C69.6476 89.4715 69.6552 89.4594 69.6613 89.4473C69.7688 89.2049 69.8294 88.9383 69.8445 88.6581C69.846 88.6339 69.8506 88.6127 69.8521 88.5884C69.8521 88.5718 69.8566 88.5551 69.8566 88.5385L70.1505 18.5062C70.1505 18.2927 70.1217 18.0821 70.0657 17.8807C70.4716 16.4115 72.2437 15.2694 74.29 15.2694C74.296 15.2694 74.3036 15.2694 74.3112 15.2694C76.3938 15.2785 78.1326 16.4069 78.5295 17.8928C78.4658 18.0988 78.4325 18.3169 78.4325 18.5426L78.1387 88.5687C78.1387 88.5854 78.1432 88.6021 78.1432 88.6187C78.1432 88.643 78.1493 88.6657 78.1508 88.6899C78.1644 88.9686 78.222 89.2352 78.328 89.4791C78.3341 89.4912 78.3416 89.5033 78.3477 89.5154C78.4674 89.7774 78.6325 90.0137 78.8384 90.2106C78.8445 90.2152 78.846 90.2228 78.8506 90.2288L100.24 110.454L100.215 119.335L79.6488 119.245C79.6291 119.245 79.6109 119.239 79.5912 119.239C79.5882 119.239 79.5852 119.239 79.5821 119.239C79.564 119.239 79.5458 119.244 79.5276 119.245L68.2057 119.195C68.186 119.195 68.1663 119.189 68.1466 119.189C68.1436 119.189 68.1406 119.189 68.1375 119.189C68.1178 119.189 68.0997 119.194 68.0815 119.195L47.5324 119.106L47.5672 110.235Z" fill="white"/>
</svg>
