<svg width="152" height="152" viewBox="0 0 152 152" fill="none" xmlns="http://www.w3.org/2000/svg">
<path d="M24.3251 13.5411V139.153H124.446V13.5411H24.3251ZM119.9 134.609H28.8675V18.0851H119.9V134.609Z" fill="white"/>
<path d="M88.8578 93.814C90.9177 90.9149 92.1415 87.3842 92.1415 83.5658C92.1415 73.7734 84.176 65.8063 74.3854 65.8063C64.5948 65.8063 56.6278 73.7734 56.6278 83.5658C56.6278 87.3858 57.8531 90.918 59.9145 93.817L48.3442 110.375C47.808 111.143 47.7974 112.161 48.317 112.94C48.8365 113.717 49.7801 114.094 50.6949 113.895L59.5374 111.942L61.1429 120.206C61.3277 121.151 62.0865 121.878 63.0377 122.019C63.1498 122.035 63.2619 122.044 63.374 122.044C64.204 122.044 64.9825 121.588 65.3794 120.839L74.3839 103.887L83.3929 120.839C83.7913 121.588 84.5683 122.044 85.3983 122.044C85.5089 122.044 85.621 122.037 85.7346 122.019C86.6858 121.876 87.4461 121.151 87.6294 120.206L89.2379 111.942L98.0683 113.894C98.9831 114.094 99.9267 113.717 100.448 112.938C100.967 112.16 100.957 111.142 100.422 110.374L88.8578 93.814ZM74.3839 70.3503C81.6693 70.3503 87.5961 76.2787 87.5961 83.5658C87.5961 90.8483 81.6693 96.7722 74.3839 96.7722C67.0985 96.7722 61.1702 90.8483 61.1702 83.5658C61.1717 76.2802 67.0985 70.3503 74.3839 70.3503ZM64.3797 113.037L63.5557 108.788C63.4391 108.187 63.0832 107.658 62.5727 107.322C62.0608 106.986 61.4352 106.872 60.837 107.002L55.4085 108.202L63.0726 97.2341C65.2688 99.0532 67.9073 100.356 70.8018 100.951L64.3797 113.037ZM87.9444 107.004C87.3477 106.873 86.7206 106.987 86.2087 107.322C85.6967 107.658 85.3423 108.187 85.2257 108.788L84.3972 113.043L77.9721 100.953C80.8665 100.357 83.5065 99.0532 85.7013 97.2341L93.3608 108.203L87.9444 107.004Z" fill="white"/>
<path d="M47.3446 47.0699H100.726C101.982 47.0699 102.998 46.0535 102.998 44.7979C102.998 43.5422 101.982 42.5259 100.726 42.5259H47.3446C46.0889 42.5259 45.0726 43.5422 45.0726 44.7979C45.0726 46.0535 46.0889 47.0699 47.3446 47.0699Z" fill="white"/>
</svg>
