<svg width="100" height="100" viewBox="0 0 100 100" fill="none" xmlns="http://www.w3.org/2000/svg">
<path d="M38 4C18.2683 4 2 18.207 2 36C2 44.6377 5.97022 52.3848 12.168 58.1055C10.3091 64.0199 3.10156 68.3594 3.10156 68.3594C2.839 68.503 2.61201 68.7037 2.43733 68.9467C2.26264 69.1897 2.14472 69.4688 2.09224 69.7635C2.03976 70.0581 2.05406 70.3608 2.1341 70.6491C2.21413 70.9375 2.35786 71.2042 2.55469 71.4297C2.55469 71.4297 3.36549 72.2777 4.67188 72.875C5.97826 73.4723 7.92724 74 10.6562 74C23.5919 74 29.4025 68.8258 30.9102 67.2695C33.2049 67.6843 35.5499 68 38 68C57.7317 68 74 53.793 74 36C74 18.207 57.7317 4 38 4ZM38 8C55.8243 8 70 20.657 70 36C70 51.343 55.8243 64 38 64C35.5128 64 33.0954 63.7263 30.75 63.25C30.4357 63.1856 30.1104 63.1977 29.8018 63.2854C29.4931 63.3731 29.2101 63.5338 28.9766 63.7539L28.6914 64.0273C28.6493 64.066 28.6089 64.1064 28.5703 64.1484C28.1269 64.646 23.2148 70 10.6562 70C9.42443 70 9.00038 69.7512 8.25781 69.5781C11.1776 67.5248 15.0414 64.2037 16.3945 58.3125C16.3988 58.2904 16.4027 58.2683 16.4062 58.2461L16.4492 58.0195C16.5178 57.6705 16.492 57.3095 16.3746 56.9738C16.2572 56.638 16.0524 56.3396 15.7812 56.1094C9.71996 50.98 6 43.8798 6 36C6 20.657 20.1757 8 38 8ZM22 28C21.735 27.9963 21.4719 28.0452 21.2259 28.144C20.98 28.2429 20.7561 28.3896 20.5674 28.5757C20.3787 28.7618 20.2288 28.9835 20.1265 29.228C20.0242 29.4725 19.9715 29.7349 19.9715 30C19.9715 30.2651 20.0242 30.5275 20.1265 30.772C20.2288 31.0165 20.3787 31.2382 20.5674 31.4243C20.7561 31.6104 20.98 31.7571 21.2259 31.856C21.4719 31.9548 21.735 32.0037 22 32H54C54.265 32.0037 54.5281 31.9548 54.7741 31.856C55.02 31.7571 55.2439 31.6104 55.4326 31.4243C55.6213 31.2382 55.7712 31.0165 55.8735 30.772C55.9758 30.5275 56.0285 30.2651 56.0285 30C56.0285 29.7349 55.9758 29.4725 55.8735 29.228C55.7712 28.9835 55.6213 28.7618 55.4326 28.5757C55.2439 28.3896 55.02 28.2429 54.7741 28.144C54.5281 28.0452 54.265 27.9963 54 28H22ZM77.2344 29.0469C77.5664 30.5689 77.7591 32.1327 77.8711 33.7188C87.4911 38.5527 94 47.616 94 58C94 65.632 90.5267 72.7754 84.2188 78.1094C83.6647 78.5774 83.4108 79.3114 83.5508 80.0234L83.6094 80.3125C84.8214 85.5905 88.9215 89.5452 91.8555 91.7852C91.1735 91.9132 90.3457 92 89.3438 92C76.9857 92 71.9646 86.7494 71.3086 86.0234L71.0234 85.7539C70.6494 85.3999 70.1544 85.2109 69.6484 85.2109C69.5164 85.2109 69.3859 85.224 69.2539 85.25C66.7999 85.748 64.358 86 62 86C50.094 86 39.7053 80.2687 34.1953 71.8047C33.5313 71.7447 32.8711 71.6936 32.2031 71.6016C31.6471 72.0316 30.959 72.4967 30.207 72.9688C36.261 83.0888 48.234 90 62 90C64.282 90 66.6264 89.7891 68.9844 89.3711C70.9444 91.2671 77.0697 96 89.3438 96C94.9198 96 97.0713 93.8636 97.4453 93.4336C97.8453 92.9776 98.0123 92.3636 97.9062 91.7656C97.8023 91.1696 97.4343 90.6533 96.9023 90.3633C96.8263 90.3213 89.6899 86.3381 87.7539 80.3281C94.3719 74.3141 98 66.434 98 58C98 45.2 89.4804 34.1609 77.2344 29.0469ZM22 40C21.735 39.9963 21.4719 40.0452 21.2259 40.144C20.98 40.2429 20.7561 40.3896 20.5674 40.5757C20.3787 40.7618 20.2288 40.9835 20.1265 41.228C20.0242 41.4725 19.9715 41.735 19.9715 42C19.9715 42.265 20.0242 42.5275 20.1265 42.772C20.2288 43.0165 20.3787 43.2382 20.5674 43.4243C20.7561 43.6104 20.98 43.7571 21.2259 43.856C21.4719 43.9548 21.735 44.0037 22 44H40C40.265 44.0037 40.5281 43.9548 40.7741 43.856C41.02 43.7571 41.2439 43.6104 41.4326 43.4243C41.6213 43.2382 41.7712 43.0165 41.8735 42.772C41.9758 42.5275 42.0285 42.265 42.0285 42C42.0285 41.735 41.9758 41.4725 41.8735 41.228C41.7712 40.9835 41.6213 40.7618 41.4326 40.5757C41.2439 40.3896 41.02 40.2429 40.7741 40.144C40.5281 40.0452 40.265 39.9963 40 40H22ZM48 40C47.735 39.9963 47.4719 40.0452 47.2259 40.144C46.98 40.2429 46.7561 40.3896 46.5674 40.5757C46.3787 40.7618 46.2288 40.9835 46.1265 41.228C46.0242 41.4725 45.9715 41.735 45.9715 42C45.9715 42.265 46.0242 42.5275 46.1265 42.772C46.2288 43.0165 46.3787 43.2382 46.5674 43.4243C46.7561 43.6104 46.98 43.7571 47.2259 43.856C47.4719 43.9548 47.735 44.0037 48 44H54C54.265 44.0037 54.5281 43.9548 54.7741 43.856C55.02 43.7571 55.2439 43.6104 55.4326 43.4243C55.6213 43.2382 55.7712 43.0165 55.8735 42.772C55.9758 42.5275 56.0285 42.265 56.0285 42C56.0285 41.735 55.9758 41.4725 55.8735 41.228C55.7712 40.9835 55.6213 40.7618 55.4326 40.5757C55.2439 40.3896 55.02 40.2429 54.7741 40.144C54.5281 40.0452 54.265 39.9963 54 40H48Z" fill="#1565C0"/>
</svg>
