<svg width="47" height="67" viewBox="0 0 47 67" fill="none" xmlns="http://www.w3.org/2000/svg">
<g filter="url(#filter0_d)">
<path d="M20.5652 13.2307V4.4615C20.5652 4.30765 20.5652 4.15381 20.3913 3.99996C20.2174 3.84612 20.2174 3.69227 20.0435 3.69227L18.8261 2.4615C18.6522 2.4615 18.6522 2.30765 18.4783 2.30765C18.3044 2.15381 18.1304 2.15381 17.9565 2.15381H14.1304H10.3044C10.1304 2.15381 9.95653 2.15381 9.78262 2.30765C9.60871 2.4615 9.60871 2.4615 9.43479 2.4615L8.2174 3.69227C8.04349 3.69227 7.86957 3.84612 7.86957 3.99996C7.86957 4.15381 7.86957 4.30765 7.86957 4.4615V13.2307C5.43479 15.0769 4.04349 17.8461 4.04349 21.3846V54C4.04349 56.4615 6.30436 58.4615 9.08697 58.4615H14.1304H19.1739C21.9565 58.4615 24.2174 56.4615 24.2174 54V21.3846C24.3913 17.8461 23 15.0769 20.5652 13.2307ZM16.7391 6.92304C16.3913 5.99996 15.3478 5.38458 14.1304 5.38458C12.9131 5.38458 11.8696 5.99996 11.5217 7.07689H10.3044V4.92304L10.8261 4.4615H14.1304H17.4348L17.9565 4.92304V6.92304H16.7391ZM14.1304 8.76919C13.6087 8.76919 13.087 8.4615 13.087 7.84612C13.087 7.23073 13.4348 6.92304 14.1304 6.92304C14.8261 6.92304 15.1739 7.23073 15.1739 7.84612C15.1739 8.4615 14.6522 8.76919 14.1304 8.76919ZM10.3044 8.76919H11.5217C11.8696 9.84612 12.9131 10.4615 14.1304 10.4615C15.3478 10.4615 16.3913 9.84612 16.7391 8.76919H17.9565V11.8461C16.7391 11.3846 15.5217 11.2307 14.1304 11.2307C12.7391 11.2307 11.5217 11.3846 10.3044 11.8461V8.76919ZM14.1304 24.6153H21.7826V46H14.1304H6.47827V24.6153H14.1304ZM19.1739 56.1538H14.1304H9.08697C7.69566 56.1538 6.47827 55.0769 6.47827 53.8461V48.1538H14.1304H21.7826V53.8461C21.7826 55.2307 20.5652 56.1538 19.1739 56.1538ZM21.7826 22.4615H14.1304H6.47827V21.3846C6.47827 17.3846 8.91305 13.5384 14.1304 13.5384C19.3478 13.5384 21.7826 17.5384 21.7826 21.3846V22.4615ZM39 44.923H35.8696H31.3478C29.6087 44.923 28.2174 46.1538 28.2174 47.6923V57.2307C28.2174 57.8461 28.7391 58.3077 29.4348 58.3077H35.8696H40.9131C41.6087 58.3077 42.1304 57.8461 42.1304 57.2307V47.6923C42.1304 46.1538 40.7391 44.923 39 44.923ZM35.6957 56.1538H30.6522V47.6923C30.6522 47.3846 30.8261 47.0769 31.3478 47.0769H35.8696H39C39.3478 47.0769 39.6957 47.2307 39.6957 47.6923V56.1538H35.6957Z" fill="white"/>
</g>
<defs>
<filter id="filter0_d" x="-1" y="0" width="48" height="68" filterUnits="userSpaceOnUse" color-interpolation-filters="sRGB">
<feFlood flood-opacity="0" result="BackgroundImageFix"/>
<feColorMatrix in="SourceAlpha" type="matrix" values="0 0 0 0 0 0 0 0 0 0 0 0 0 0 0 0 0 0 127 0"/>
<feOffset dy="4"/>
<feGaussianBlur stdDeviation="2"/>
<feColorMatrix type="matrix" values="0 0 0 0 0 0 0 0 0 0 0 0 0 0 0 0 0 0 0.25 0"/>
<feBlend mode="normal" in2="BackgroundImageFix" result="effect1_dropShadow"/>
<feBlend mode="normal" in="SourceGraphic" in2="effect1_dropShadow" result="shape"/>
</filter>
</defs>
</svg>
