<svg width="100" height="100" viewBox="0 0 100 100" fill="none" xmlns="http://www.w3.org/2000/svg">
<path d="M11.9804 9.98107C11.8941 9.98201 11.808 9.98854 11.7226 10.0006H9.99992V11.7272C9.9763 11.9035 9.9763 12.0821 9.99992 12.2584V34.0006C9.99617 34.2656 10.0451 34.5288 10.144 34.7747C10.2428 35.0206 10.3895 35.2445 10.5756 35.4332C10.7617 35.622 10.9834 35.7718 11.2279 35.8741C11.4725 35.9764 11.7349 36.0291 11.9999 36.0291C12.265 36.0291 12.5274 35.9764 12.7719 35.8741C13.0164 35.7718 13.2382 35.622 13.4242 35.4332C13.6103 35.2445 13.757 35.0206 13.8559 34.7747C13.9547 34.5288 14.0037 34.2656 13.9999 34.0006V16.8287L40.5859 43.4147C40.7948 43.6322 41.0502 43.7996 41.3329 43.9044C41.6157 44.0093 41.9185 44.0488 42.2187 44.0201C42.2842 44.0142 42.3494 44.0051 42.414 43.9928C42.7734 43.9224 43.1065 43.7546 43.3771 43.5078C43.6477 43.2611 43.8453 42.9448 43.9485 42.5934C44.0516 42.242 44.0563 41.869 43.9621 41.5152C43.8678 41.1613 43.6782 40.8401 43.414 40.5865L16.828 14.0006H33.9999C34.2649 14.0043 34.5281 13.9554 34.774 13.8566C35.0199 13.7577 35.2438 13.611 35.4325 13.4249C35.6213 13.2388 35.7711 13.0171 35.8734 12.7726C35.9757 12.5281 36.0284 12.2657 36.0284 12.0006C36.0284 11.7355 35.9757 11.4731 35.8734 11.2286C35.7711 10.9841 35.6213 10.7624 35.4325 10.5763C35.2438 10.3902 35.0199 10.2435 34.774 10.1446C34.5281 10.0458 34.2649 9.99685 33.9999 10.0006H12.2343C12.1502 9.9887 12.0654 9.98218 11.9804 9.98107ZM87.9609 9.98107C87.8863 9.98342 87.812 9.98994 87.7382 10.0006H65.9999C65.7349 9.99685 65.4718 10.0458 65.2258 10.1446C64.9799 10.2435 64.7561 10.3902 64.5673 10.5763C64.3786 10.7624 64.2287 10.9841 64.1264 11.2286C64.0241 11.4731 63.9714 11.7355 63.9714 12.0006C63.9714 12.2657 64.0241 12.5281 64.1264 12.7726C64.2287 13.0171 64.3786 13.2388 64.5673 13.4249C64.7561 13.611 64.9799 13.7577 65.2258 13.8566C65.4718 13.9554 65.7349 14.0043 65.9999 14.0006H83.1718L56.5859 40.5865C56.3939 40.7708 56.2407 40.9916 56.1351 41.2358C56.0295 41.4801 55.9737 41.743 55.971 42.009C55.9683 42.2751 56.0187 42.5391 56.1193 42.7854C56.2199 43.0318 56.3686 43.2556 56.5568 43.4437C56.7449 43.6319 56.9687 43.7806 57.2151 43.8812C57.4615 43.9818 57.7254 44.0322 57.9915 44.0295C58.2576 44.0268 58.5204 43.971 58.7647 43.8654C59.009 43.7599 59.2297 43.6066 59.414 43.4147L85.9999 16.8287V34.0006C85.9962 34.2656 86.0451 34.5288 86.144 34.7747C86.2428 35.0206 86.3895 35.2445 86.5756 35.4332C86.7617 35.622 86.9834 35.7718 87.2279 35.8741C87.4725 35.9764 87.7349 36.0291 87.9999 36.0291C88.265 36.0291 88.5274 35.9764 88.7719 35.8741C89.0164 35.7718 89.2381 35.622 89.4242 35.4332C89.6103 35.2445 89.757 35.0206 89.8559 34.7747C89.9547 34.5288 90.0037 34.2656 89.9999 34.0006V12.2545C90.0253 12.0718 90.0253 11.8864 89.9999 11.7037V10.0006H88.2929C88.1829 9.98488 88.0719 9.97835 87.9609 9.98107ZM41.9609 55.9811C41.4413 55.9966 40.9481 56.2137 40.5859 56.5865L13.9999 83.1725V66.0006C14.0036 65.733 13.9535 65.4674 13.8527 65.2196C13.7519 64.9717 13.6023 64.7466 13.4129 64.5575C13.2235 64.3685 12.9981 64.2194 12.75 64.119C12.5019 64.0186 12.2362 63.9691 11.9687 63.9733C11.4389 63.9815 10.9341 64.1997 10.565 64.5798C10.1959 64.9598 9.99266 65.4708 9.99992 66.0006V87.6959C9.96292 87.9157 9.96292 88.1402 9.99992 88.36V90.0006H11.6484C11.8656 90.0368 12.0873 90.0368 12.3046 90.0006H33.9999C34.2649 90.0044 34.5281 89.9554 34.774 89.8566C35.0199 89.7578 35.2438 89.611 35.4325 89.4249C35.6213 89.2388 35.7711 89.0171 35.8734 88.7726C35.9757 88.5281 36.0284 88.2657 36.0284 88.0006C36.0284 87.7356 35.9757 87.4732 35.8734 87.2286C35.7711 86.9841 35.6213 86.7624 35.4325 86.5763C35.2438 86.3902 35.0199 86.2435 34.774 86.1447C34.5281 86.0458 34.2649 85.9969 33.9999 86.0006H16.828L43.414 59.4147C43.703 59.1337 43.9004 58.7721 43.9803 58.377C44.0602 57.982 44.0189 57.572 43.8619 57.2008C43.7048 56.8297 43.4392 56.5146 43.1 56.297C42.7608 56.0793 42.3637 55.9692 41.9609 55.9811ZM57.9804 55.9811C57.5945 55.9811 57.2168 56.0928 56.8929 56.3026C56.569 56.5125 56.3128 56.8115 56.155 57.1638C55.9973 57.516 55.9448 57.9063 56.0039 58.2877C56.0631 58.6691 56.2312 59.0252 56.4882 59.3131C56.5196 59.3481 56.5521 59.382 56.5859 59.4147L83.1718 86.0006H65.9999C65.7349 85.9969 65.4718 86.0458 65.2258 86.1447C64.9799 86.2435 64.7561 86.3902 64.5673 86.5763C64.3786 86.7624 64.2287 86.9841 64.1264 87.2286C64.0241 87.4732 63.9714 87.7356 63.9714 88.0006C63.9714 88.2657 64.0241 88.5281 64.1264 88.7726C64.2287 89.0171 64.3786 89.2388 64.5673 89.4249C64.7561 89.611 64.9799 89.7578 65.2258 89.8566C65.4718 89.9554 65.7349 90.0044 65.9999 90.0006H87.6952C87.915 90.0376 88.1395 90.0376 88.3593 90.0006H89.9999V88.3522C90.036 88.1349 90.036 87.9132 89.9999 87.6959V66.0006C90.0036 65.733 89.9535 65.4674 89.8527 65.2196C89.7519 64.9717 89.6023 64.7466 89.4129 64.5575C89.2235 64.3685 88.9981 64.2194 88.75 64.119C88.5019 64.0186 88.2362 63.9691 87.9687 63.9733C87.4389 63.9815 86.9341 64.1997 86.565 64.5798C86.1959 64.9598 85.9927 65.4708 85.9999 66.0006V83.1725L59.414 56.5865C59.2276 56.395 59.0047 56.2427 58.7585 56.1387C58.5123 56.0347 58.2477 55.9811 57.9804 55.9811Z" fill="#1565C0"/>
</svg>
