<svg width="77" height="67" viewBox="0 0 77 67" fill="none" xmlns="http://www.w3.org/2000/svg">
<g filter="url(#filter0_d)">
<path d="M30 23.1998L28.6 24.5998V12.7998C28.6 10.3998 26.8 8.7998 24 8.7998C23.8 8.7998 23.4 8.7998 23.2 8.7998V7.9998C23.2 5.5998 21.4 3.7998 18.8 3.7998C17 3.7998 15.6 4.9998 15 6.5998C14.6 6.3998 14 6.1998 13.4 6.1998C11.2 6.1998 9.4 8.1998 9.4 10.3998V11.5998C9 11.5998 8.8 11.5998 8.4 11.5998C5.8 11.5998 4 13.3998 4 15.7998V56.9998C4 57.7998 4.6 58.5998 5.6 58.5998H28.4C29.2 58.5998 30 57.9998 30 56.9998V40.3998L36.2 29.9998C36.2 29.9998 36.2 29.7998 36.4 29.7998C37.2 27.9998 38.2 25.3998 36.2 23.1998C34.2 21.3998 31.8 21.3998 30 23.1998ZM7 55.1998V51.9998H26.8V55.1998H7ZM33.4 28.3998L27 38.9998C26.8 39.1998 26.8 39.5998 26.8 39.7998V50.3998H7V15.5998C7 14.7998 7.6 14.5998 8.4 14.5998C9 14.5998 9.2 15.1998 9.2 15.7998L9.4 27.3998V27.5998C9.4 28.3998 10.2 29.1998 11 29.1998C11.8 29.1998 12.6 28.3998 12.6 27.5998L12.4 10.3998C12.4 9.7998 12.8 9.1998 13.6 9.1998C14.4 9.1998 14.8 9.7998 14.8 10.3998V27.3998C14.8 28.1998 15.4 28.9998 16.4 28.9998C17.2 28.9998 18 28.3998 18 27.3998V7.9998C18 7.3998 18.2 6.7998 19 6.7998C19.8 6.7998 20.2 6.9998 20.2 7.9998V27.3998C20.2 28.1998 20.8 28.9998 21.8 28.9998C22.8 28.9998 23.4 28.3998 23.4 27.3998V12.9998C23.4 12.3998 23.8 11.7998 24.6 11.7998C25.2 11.7998 25.8 11.9998 25.8 12.7998V28.3998C25.8 28.9998 26.2 29.5998 26.8 29.7998C27.4 29.9998 28 29.7998 28.4 29.3998L32.4 25.1998C33.2 24.3998 33.6 24.7998 34.2 25.1998C34.4 25.7998 34.6 26.3998 33.4 28.3998ZM67.6 11.5998C67.4 11.5998 67 11.5998 66.8 11.7998V10.5998C66.8 8.39981 65 6.3998 62.8 6.3998C62.2 6.3998 61.6 6.5998 61.2 6.5998C60.6 4.9998 59.2 3.7998 57.6 3.7998C55 3.7998 53.2 5.5998 53.2 7.9998V8.7998C53 8.7998 52.6 8.5998 52.4 8.5998C49.8 8.5998 47.8 10.1998 47.8 12.5998V24.3998L46.6 22.9998C44.8 21.1998 42.4 21.1998 40.6 22.9998C38.6 24.9998 39.6 27.7998 40.4 29.3998C40.4 29.3998 40.4 29.5998 40.6 29.5998L46.8 39.9998V56.5998C46.8 57.3998 47.4 58.1998 48.4 58.1998H71.2C72 58.1998 72.8 57.5998 72.8 56.5998V15.5998C72 13.1998 70 11.5998 67.6 11.5998ZM61.2 10.3998C61.2 9.7998 61.6 9.1998 62.6 9.1998C63 9.1998 63.6 9.7998 63.6 10.3998L63.4 28.1998C62.6 28.1998 61.8 27.9998 61 27.9998C61.2 27.9998 61.2 10.3998 61.2 10.3998ZM57.2 6.7998C57.6 6.7998 58 7.3998 58 7.9998C58 7.9998 58 27.9998 58 28.1998C57.2 28.1998 56.4 28.3998 55.8 28.5998V7.9998C55.8 6.9998 56.2 6.7998 57.2 6.7998ZM42.6 28.3998C41.4 26.7998 41.6 25.7998 42 25.3998C42.4 24.9998 43 24.5998 43.8 25.3998L47.8 29.5998C48.2 29.9998 49 30.1998 49.4 29.9998C50 29.7998 50.4 29.1998 50.4 28.5998V12.7998C50.4 11.9998 51 11.7998 52 11.7998C52.4 11.7998 52.8 12.1998 52.8 12.9998C52.8 12.9998 52.8 29.3998 53 29.5998C52.6 29.7998 52.2 29.9998 52 29.9998C51.6 30.1998 51.6 30.5998 51.8 30.9998C52 31.1998 52.2 31.3998 52.4 31.3998C52.6 31.3998 52.6 31.3998 52.8 31.1998C55 29.7998 61.6 28.3998 66 30.5998C66.4 30.7998 66.8 30.5998 67 30.1998C67.2 29.7998 67 29.3998 66.6 29.1998H66.4C66.4 28.7998 66.6 16.7998 66.6 16.7998C66.6 15.3998 66.8 14.5998 67.6 14.5998C68.2 14.5998 69 14.7998 69 15.5998V50.3998H49.2V39.7998C49.2 39.5998 49.2 39.1998 49 38.9998L42.6 28.3998ZM49.2 55.1998V51.9998H69V55.1998H49.2Z" fill="white"/>
</g>
<defs>
<filter id="filter0_d" x="-1" y="0" width="78" height="68" filterUnits="userSpaceOnUse" color-interpolation-filters="sRGB">
<feFlood flood-opacity="0" result="BackgroundImageFix"/>
<feColorMatrix in="SourceAlpha" type="matrix" values="0 0 0 0 0 0 0 0 0 0 0 0 0 0 0 0 0 0 127 0"/>
<feOffset dy="4"/>
<feGaussianBlur stdDeviation="2"/>
<feColorMatrix type="matrix" values="0 0 0 0 0 0 0 0 0 0 0 0 0 0 0 0 0 0 0.25 0"/>
<feBlend mode="normal" in2="BackgroundImageFix" result="effect1_dropShadow"/>
<feBlend mode="normal" in="SourceGraphic" in2="effect1_dropShadow" result="shape"/>
</filter>
</defs>
</svg>
