<svg width="152" height="152" viewBox="0 0 152 152" fill="none" xmlns="http://www.w3.org/2000/svg">
<path d="M116.498 17.4715C115.604 17.1186 114.568 17.3791 113.935 18.1107C113.905 18.144 110.857 21.5793 98.5373 28.0998C86.0338 34.7234 51.062 56.2815 49.461 57.2736C38.2222 65.2179 32.2076 78.5257 33.7661 92.0061C34.9036 101.813 39.7763 110.28 46.7755 116.204L36.9515 130.613C36.2441 131.651 36.5122 133.062 37.5482 133.77C37.9405 134.038 38.3858 134.165 38.8266 134.165C39.5521 134.165 40.2655 133.818 40.7063 133.173L50.4243 118.922C56.3633 122.826 63.4155 125.098 70.8857 125.098C72.3171 125.098 73.7621 125.016 75.2177 124.848C88.4163 123.32 99.8399 114.721 105.146 102.36C105.259 102.241 105.377 102.094 105.47 101.926C112.046 91.2473 116.339 62.3128 116.631 54.2322C116.887 46.5332 117.937 19.9298 117.948 19.6617C117.984 18.6969 117.396 17.8275 116.498 17.4715ZM38.2798 91.4851C36.9121 79.6571 42.2012 67.9716 51.9647 61.0648C52.3267 60.8421 88.2906 38.6706 100.664 32.1167C102.757 31.008 104.584 29.9886 106.204 29.045L49.3353 112.451C43.3781 107.262 39.2583 99.9293 38.2798 91.4851ZM101.732 99.3204C101.648 99.3991 101.554 99.4976 101.459 99.6172C101.327 99.7823 101.22 99.9656 101.138 100.163C96.55 111.245 86.417 118.976 74.6921 120.332C66.7704 121.25 59.1699 119.252 52.9644 115.192L113.111 26.982C112.777 35.5247 112.258 48.9566 112.089 54.0731C111.765 62.9445 107.443 89.6145 101.732 99.3204Z" fill="white"/>
</svg>
