<svg width="152" height="152" viewBox="0 0 152 152" fill="none" xmlns="http://www.w3.org/2000/svg">
<path d="M121.68 58.0688C121.68 31.8986 100.388 10.6086 74.2195 10.6086C48.0509 10.6086 26.7594 31.8986 26.7594 58.0688C26.7594 81.6186 44.0022 101.209 66.5236 104.899V136.313H51.5649C50.3092 136.313 49.2929 137.329 49.2929 138.585C49.2929 139.84 50.3092 140.857 51.5649 140.857H68.7956H79.645H96.8803C98.1359 140.857 99.1523 139.84 99.1523 138.585C99.1523 137.329 98.1359 136.313 96.8803 136.313H81.917V104.899C104.437 101.208 121.68 81.6186 121.68 58.0688ZM31.3018 58.0688C31.3018 34.4038 50.5531 15.1526 74.218 15.1526C97.883 15.1526 117.134 34.4038 117.134 58.0688C117.134 81.7353 97.8815 100.988 74.218 100.988C50.5546 100.988 31.3018 81.7337 31.3018 58.0688ZM77.3715 105.532V136.313H71.066V105.532H77.3715Z" fill="white"/>
<path d="M111.459 58.0688C111.459 37.5332 94.7537 20.8265 74.2196 20.8265C53.6854 20.8265 36.9803 37.5332 36.9803 58.0688C36.9803 78.606 53.6854 95.3142 74.2196 95.3142C94.7522 95.3126 111.459 78.606 111.459 58.0688ZM41.5227 58.0688C41.5227 40.0384 56.1906 25.3705 74.218 25.3705C92.247 25.3705 106.913 40.0384 106.913 58.0688C106.913 76.1008 92.2454 90.7702 74.218 90.7702C56.1906 90.7687 41.5227 76.0993 41.5227 58.0688Z" fill="white"/>
<path d="M66.8507 38.9236C67.7383 38.0375 67.7383 36.5986 66.8507 35.711C65.9647 34.8234 64.5257 34.8234 63.6382 35.711L49.9578 49.3883C49.0702 50.2744 49.0702 51.7133 49.9578 52.6009C50.4001 53.0447 50.9832 53.2658 51.5648 53.2658C52.1465 53.2658 52.7281 53.0447 53.1719 52.6009L66.8507 38.9236Z" fill="white"/>
<path d="M76.3628 39.5249C75.4752 38.6373 74.0363 38.6388 73.1487 39.5249L53.4158 59.2472C52.5282 60.1348 52.5282 61.5737 53.4158 62.4613C53.8596 62.9051 54.4412 63.1262 55.0229 63.1262C55.6045 63.1262 56.1861 62.9051 56.6299 62.4613L76.3628 42.739C77.2489 41.8514 77.2489 40.4125 76.3628 39.5249Z" fill="white"/>
</svg>
