<svg width="74" height="58" viewBox="0 0 74 58" fill="none" xmlns="http://www.w3.org/2000/svg">
<g filter="url(#filter0_d)">
<path d="M37 0.0952148C30.9333 0.0952148 26.0333 5.34509 26.0333 11.8451C26.0333 18.3451 30.9333 23.5951 37 23.5951C43.0667 23.5951 47.9667 18.3451 47.9667 11.8451C47.9667 5.34509 43.0667 0.0952148 37 0.0952148ZM37 4.84512C40.7333 4.84512 43.5333 7.84509 43.5333 11.8451C43.5333 15.8451 40.7333 18.8452 37 18.8452C33.2667 18.8452 30.4667 15.8451 30.4667 11.8451C30.4667 7.84509 33.2667 4.84512 37 4.84512ZM17.4 7.84515C13.4333 7.84515 10.1667 11.3451 10.1667 15.5951C10.1667 19.8451 13.4333 23.3452 17.4 23.3452C21.3667 23.3452 24.6333 19.8451 24.6333 15.5951C24.6333 11.3451 21.3667 7.84515 17.4 7.84515ZM56.6 7.84515C52.6333 7.84515 49.3667 11.3451 49.3667 15.5951C49.3667 19.8451 52.6333 23.3452 56.6 23.3452C60.5667 23.3452 63.8333 19.8451 63.8333 15.5951C63.8333 11.3451 60.5667 7.84515 56.6 7.84515ZM17.4 12.5952C19.0333 12.5952 20.2 13.8451 20.2 15.5951C20.2 17.3451 19.0333 18.5951 17.4 18.5951C15.7667 18.5951 14.6 17.3451 14.6 15.5951C14.6 13.8451 15.7667 12.5952 17.4 12.5952ZM56.6 12.5952C58.2333 12.5952 59.4 13.8451 59.4 15.5951C59.4 17.3451 58.2333 18.5951 56.6 18.5951C54.9667 18.5951 53.8 17.3451 53.8 15.5951C53.8 13.8451 54.9667 12.5952 56.6 12.5952ZM17.4 25.8452C10.1667 25.8452 4.33333 32.0951 4.33333 39.8451C4.33333 41.0951 5.26666 42.0952 6.43333 42.0952H18.1C17.6333 43.8452 17.4 45.5952 17.4 47.5952C17.4 48.8452 18.3333 49.8451 19.5 49.8451H54.2667C55.4333 49.8451 56.3667 48.8452 56.3667 47.5952C56.3667 45.5952 56.1333 43.8452 55.6667 42.0952H67.3333C68.5 42.0952 69.4333 41.0951 69.4333 39.8451C69.4333 32.0951 63.6 25.8452 56.3667 25.8452C52.8667 25.8452 49.6 27.3451 47.2667 29.8451C44.2333 27.8451 40.7333 26.5952 36.7667 26.5952C32.8 26.5952 29.3 27.8451 26.2667 29.8451C24.1667 27.3451 20.9 25.8452 17.4 25.8452ZM17.4 30.3452C19.5 30.3452 21.6 31.0952 23.2333 32.5952C21.8333 34.0952 20.9 35.5951 19.9667 37.3451H9.23333C10.1667 33.3451 13.4333 30.3452 17.4 30.3452ZM56.6 30.3452C60.5667 30.3452 63.8333 33.3451 64.7667 37.3451H54.0333C53.1 35.5951 52.1667 34.0952 50.7667 32.5952C52.4 31.3452 54.5 30.3452 56.6 30.3452ZM37 31.3452C44.7 31.3452 51 37.3452 51.9333 45.3452H22.0667C23 37.3452 29.3 31.3452 37 31.3452Z" fill="white"/>
</g>
<defs>
<filter id="filter0_d" x="-2" y="0" width="78" height="58" filterUnits="userSpaceOnUse" color-interpolation-filters="sRGB">
<feFlood flood-opacity="0" result="BackgroundImageFix"/>
<feColorMatrix in="SourceAlpha" type="matrix" values="0 0 0 0 0 0 0 0 0 0 0 0 0 0 0 0 0 0 127 0"/>
<feOffset dy="4"/>
<feGaussianBlur stdDeviation="2"/>
<feColorMatrix type="matrix" values="0 0 0 0 0 0 0 0 0 0 0 0 0 0 0 0 0 0 0.25 0"/>
<feBlend mode="normal" in2="BackgroundImageFix" result="effect1_dropShadow"/>
<feBlend mode="normal" in="SourceGraphic" in2="effect1_dropShadow" result="shape"/>
</filter>
</defs>
</svg>
