<svg width="86" height="92" viewBox="0 0 86 92" fill="none" xmlns="http://www.w3.org/2000/svg">
<path d="M43 0C36.3963 0 31 5.39627 31 12C31 18.6037 36.3963 24 43 24C49.6037 24 55 18.6037 55 12C55 5.39627 49.6037 0 43 0ZM2.98047 3.98047C2.69442 3.98053 2.41171 4.04195 2.15142 4.16057C1.89113 4.2792 1.65931 4.45227 1.4716 4.66812C1.28389 4.88396 1.14466 5.13756 1.06331 5.41179C0.981954 5.68603 0.960365 5.97452 0.999999 6.25781V20C0.996251 20.265 1.04521 20.5281 1.14404 20.7741C1.24287 21.02 1.38959 21.2439 1.57568 21.4326C1.76177 21.6213 1.98351 21.7712 2.22803 21.8735C2.47254 21.9758 2.73495 22.0285 3 22.0285C3.26505 22.0285 3.52746 21.9758 3.77197 21.8735C4.01649 21.7712 4.23823 21.6213 4.42432 21.4326C4.61041 21.2439 4.75713 21.02 4.85596 20.7741C4.95478 20.5281 5.00375 20.265 5 20V10.8281L17.5859 23.4141C17.7702 23.606 17.991 23.7593 18.2352 23.8648C18.4795 23.9704 18.7423 24.0262 19.0084 24.0289C19.2745 24.0316 19.5385 23.9812 19.7848 23.8806C20.0312 23.78 20.255 23.6313 20.4431 23.4431C20.6313 23.255 20.78 23.0312 20.8806 22.7848C20.9812 22.5385 21.0316 22.2745 21.0289 22.0084C21.0262 21.7423 20.9704 21.4795 20.8648 21.2352C20.7593 20.991 20.606 20.7702 20.4141 20.5859L7.82812 8H17C17.265 8.00375 17.5281 7.95479 17.7741 7.85596C18.02 7.75713 18.2439 7.61041 18.4326 7.42432C18.6213 7.23823 18.7712 7.01649 18.8735 6.77197C18.9758 6.52746 19.0285 6.26505 19.0285 6C19.0285 5.73495 18.9758 5.47254 18.8735 5.22803C18.7712 4.98351 18.6213 4.76177 18.4326 4.57568C18.2439 4.38959 18.02 4.24287 17.7741 4.14404C17.5281 4.04521 17.265 3.99625 17 4H3.23437C3.15024 3.9881 3.06543 3.98158 2.98047 3.98047ZM82.9609 3.98047C82.8864 3.98282 82.8121 3.98934 82.7383 4H69C68.735 3.99625 68.4718 4.04521 68.2259 4.14404C67.98 4.24287 67.7561 4.38959 67.5674 4.57568C67.3787 4.76177 67.2288 4.98351 67.1265 5.22803C67.0242 5.47254 66.9715 5.73495 66.9715 6C66.9715 6.26505 67.0242 6.52746 67.1265 6.77197C67.2288 7.01649 67.3787 7.23823 67.5674 7.42432C67.7561 7.61041 67.98 7.75713 68.2259 7.85596C68.4718 7.95479 68.735 8.00375 69 8H78.1719L65.5859 20.5859C65.394 20.7702 65.2407 20.991 65.1352 21.2352C65.0296 21.4795 64.9738 21.7423 64.9711 22.0084C64.9684 22.2745 65.0188 22.5385 65.1194 22.7848C65.22 23.0312 65.3687 23.255 65.5569 23.4431C65.745 23.6313 65.9688 23.78 66.2152 23.8806C66.4615 23.9812 66.7255 24.0316 66.9916 24.0289C67.2577 24.0262 67.5205 23.9704 67.7648 23.8648C68.009 23.7593 68.2298 23.606 68.4141 23.4141L81 10.8281V20C80.9963 20.265 81.0452 20.5281 81.144 20.7741C81.2429 21.02 81.3896 21.2439 81.5757 21.4326C81.7618 21.6213 81.9835 21.7712 82.228 21.8735C82.4725 21.9758 82.7349 22.0285 83 22.0285C83.2651 22.0285 83.5275 21.9758 83.772 21.8735C84.0165 21.7712 84.2382 21.6213 84.4243 21.4326C84.6104 21.2439 84.7571 21.02 84.856 20.7741C84.9548 20.5281 85.0037 20.265 85 20V6.25391C85.0398 5.96596 85.0164 5.67279 84.9314 5.39481C84.8464 5.11683 84.7018 4.86072 84.5077 4.64432C84.3136 4.42792 84.0747 4.25642 83.8075 4.14177C83.5404 4.02712 83.2515 3.97208 82.9609 3.98047ZM43 4C47.442 4 51 7.55803 51 12C51 16.442 47.442 20 43 20C38.558 20 35 16.442 35 12C35 7.55803 38.558 4 43 4ZM34 26C27.9514 26 23 30.9535 23 37V60C22.9985 60.1457 23.0129 60.2911 23.043 60.4336C23.272 63.5213 25.8582 66 29 66C29.7037 66 30.3702 65.8521 31 65.625V85C31 88.8424 34.1576 92 38 92C39.9538 92 41.7254 91.1789 43 89.8711C44.2746 91.1789 46.0462 92 48 92C51.8424 92 55 88.8424 55 85V65.625C55.6298 65.8521 56.2963 66 57 66C60.1431 66 62.7299 63.5192 62.957 60.4297C62.9868 60.2884 63.0012 60.1444 63 60V37C63 30.9535 58.0486 26 52 26H50.1992H35.8008H34ZM34 30H35.8008H50.1992H52C55.8794 30 59 33.1225 59 37V60C59 61.1301 58.1301 62 57 62C55.8699 62 55 61.1301 55 60V42H51V60V85C51 86.6816 49.6816 88 48 88C46.3184 88 45 86.6816 45 85V62H41V85C41 86.6816 39.6816 88 38 88C36.3184 88 35 86.6816 35 85V42H31V60C31 61.1301 30.1301 62 29 62C27.8699 62 27 61.1301 27 60V37C27 33.1225 30.1206 30 34 30ZM18.9609 67.9805C18.4413 67.9959 17.9482 68.2131 17.5859 68.5859L5 81.1719V72C5.00366 71.7324 4.9536 71.4668 4.85277 71.2189C4.75193 70.9711 4.60239 70.7459 4.41298 70.5569C4.22357 70.3679 3.99816 70.2187 3.75008 70.1184C3.50201 70.018 3.23632 69.9685 2.96875 69.9727C2.439 69.9809 1.93417 70.1991 1.56507 70.5791C1.19597 70.9592 0.992745 71.4702 0.999999 72V85.6953C0.94701 86.0098 0.970015 86.3325 1.06709 86.6363C1.16417 86.9402 1.3325 87.2164 1.55805 87.4419C1.7836 87.6675 2.05982 87.8358 2.36366 87.9329C2.6675 88.03 2.99015 88.053 3.30469 88H17C17.265 88.0037 17.5281 87.9548 17.7741 87.856C18.02 87.7571 18.2439 87.6104 18.4326 87.4243C18.6213 87.2382 18.7712 87.0165 18.8735 86.772C18.9758 86.5275 19.0285 86.2651 19.0285 86C19.0285 85.7349 18.9758 85.4725 18.8735 85.228C18.7712 84.9835 18.6213 84.7618 18.4326 84.5757C18.2439 84.3896 18.02 84.2429 17.7741 84.144C17.5281 84.0452 17.265 83.9963 17 84H7.82812L20.4141 71.4141C20.7031 71.1331 20.9005 70.7715 20.9804 70.3764C21.0603 69.9814 21.019 69.5714 20.8619 69.2002C20.7048 68.8291 20.4393 68.514 20.1001 68.2963C19.7609 68.0787 19.3638 67.9686 18.9609 67.9805ZM66.9805 67.9805C66.5826 67.9806 66.1938 68.0993 65.8638 68.3216C65.5338 68.5438 65.2775 68.8594 65.1278 69.228C64.9781 69.5966 64.9417 70.0015 65.0233 70.3909C65.1049 70.7803 65.3008 71.1366 65.5859 71.4141L78.1719 84H69C68.735 83.9963 68.4718 84.0452 68.2259 84.144C67.98 84.2429 67.7561 84.3896 67.5674 84.5757C67.3787 84.7618 67.2288 84.9835 67.1265 85.228C67.0242 85.4725 66.9715 85.7349 66.9715 86C66.9715 86.2651 67.0242 86.5275 67.1265 86.772C67.2288 87.0165 67.3787 87.2382 67.5674 87.4243C67.7561 87.6104 67.98 87.7571 68.2259 87.856C68.4718 87.9548 68.735 88.0037 69 88H82.6953C83.0098 88.053 83.3325 88.03 83.6363 87.9329C83.9402 87.8358 84.2164 87.6675 84.4419 87.4419C84.6675 87.2164 84.8358 86.9402 84.9329 86.6363C85.03 86.3325 85.053 86.0098 85 85.6953V72C85.0037 71.7324 84.9536 71.4668 84.8528 71.2189C84.7519 70.9711 84.6024 70.7459 84.413 70.5569C84.2236 70.3679 83.9982 70.2187 83.7501 70.1184C83.502 70.018 83.2363 69.9685 82.9688 69.9727C82.439 69.9809 81.9342 70.1991 81.5651 70.5791C81.196 70.9592 80.9927 71.4702 81 72V81.1719L68.4141 68.5859C68.2277 68.3943 68.0048 68.2421 67.7586 68.1381C67.5123 68.0341 67.2478 67.9805 66.9805 67.9805Z" fill="#1565C0"/>
</svg>
