<svg width="152" height="152" viewBox="0 0 152 152" fill="none" xmlns="http://www.w3.org/2000/svg">
<path d="M126.147 110.035C121.588 103.349 113.629 100.344 106.137 101.728L89.8611 77.8449C98.6383 69.8929 110.365 19.5211 111.696 13.6941C111.94 12.6263 111.388 11.5373 110.384 11.1026C109.383 10.6694 108.208 11.0086 107.597 11.919L76.4476 58.1618L45.0464 12.0856C44.43 11.1798 43.2561 10.8451 42.2534 11.2858C41.2523 11.7266 40.707 12.8187 40.9569 13.8835C42.3216 19.7013 54.328 70.0019 63.1371 77.9131L47.0018 101.881C44.6087 101.448 42.1338 101.443 39.6725 101.922C34.4789 102.934 29.9911 105.91 27.0375 110.298C24.0734 114.686 22.998 119.963 24.0098 125.157C25.0216 130.355 28.0008 134.848 32.3963 137.806C35.7057 140.037 39.5195 141.196 43.4242 141.196C44.6965 141.196 45.9794 141.072 47.2547 140.823C52.4499 139.811 56.9392 136.837 59.8973 132.446C64.323 125.87 64.2503 117.578 60.4259 111.183C62.1435 108.322 63.7853 104.626 65.5105 100.739C68.5776 93.8292 72.043 86.0377 76.4763 81.8633C80.5598 86.424 84.2661 94.1488 87.4074 100.712C89.2704 104.603 91.044 108.305 92.754 111.093C88.9629 117.508 88.9311 125.802 93.3901 132.353L93.3917 132.355C97.2267 137.976 103.461 141.004 109.801 141.004C113.642 141.004 117.524 139.89 120.929 137.568C125.306 134.589 128.258 130.083 129.244 124.881C130.229 119.685 129.129 114.411 126.147 110.035ZM104.303 24.9421C99.2033 45.0478 91.9649 69.131 87.2847 74.0628L79.2042 62.2044L104.303 24.9421ZM56.1289 129.909C53.8509 133.291 50.39 135.584 46.3868 136.364C42.3807 137.149 38.3169 136.319 34.9363 134.038C31.5466 131.758 29.2519 128.295 28.4719 124.289C27.6934 120.287 28.5219 116.222 30.8074 112.838C33.0839 109.456 36.5418 107.161 40.5434 106.381C41.5264 106.19 42.514 106.095 43.4954 106.095C44.6299 106.095 45.7446 106.263 46.8427 106.513C47.1911 106.708 47.5667 106.822 47.9439 106.822C47.9802 106.822 48.0151 106.811 48.0514 106.808C49.4312 107.246 50.7596 107.873 51.994 108.705C58.9734 113.414 60.8288 122.924 56.1289 129.909ZM61.3559 98.8958C59.9942 101.964 58.6856 104.903 57.3982 107.304C56.5303 106.443 55.5806 105.645 54.531 104.938C53.5722 104.291 52.565 103.753 51.532 103.29L67.6522 79.3444C68.6109 79.2369 69.4939 78.9627 70.2119 78.7295C70.7344 78.5598 71.6129 78.2735 71.8598 78.3356C72.2445 78.4826 72.6247 78.6704 73.0048 78.8885C68.0838 83.743 64.5199 91.7662 61.3559 98.8958ZM73.488 74.0931C71.7901 73.4372 70.1361 73.9764 68.8078 74.4081C67.8733 74.711 67.3204 74.8459 66.9115 74.8353C66.81 74.814 66.7085 74.808 66.6055 74.8004C66.4965 74.7686 66.392 74.7323 66.2996 74.6671C61.6436 71.3318 53.8524 46.049 48.4134 25.0966L101.612 103.158C100.583 103.623 99.5759 104.162 98.6126 104.82C97.5629 105.535 96.6148 106.342 95.7484 107.21C94.4125 104.818 92.9888 101.851 91.5044 98.7503C86.6258 88.5551 81.0944 76.9997 73.488 74.0931ZM124.781 124.039C124.022 128.047 121.745 131.519 118.372 133.816C111.414 138.559 101.893 136.755 97.1464 129.797C92.4132 122.838 94.2186 113.318 101.172 108.574C102.419 107.726 103.749 107.096 105.116 106.66C105.565 106.678 106.018 106.566 106.42 106.312C112.352 104.986 118.766 107.279 122.394 112.597C124.691 115.968 125.54 120.031 124.781 124.039Z" fill="white"/>
</svg>
