<svg width="68" height="60" viewBox="0 0 68 60" fill="none" xmlns="http://www.w3.org/2000/svg">
<g filter="url(#filter0_d)">
<path d="M20.9274 23.7743C21.1026 23.9488 21.3322 24.0367 21.5618 24.0367C21.7914 24.0367 22.021 23.9494 22.1962 23.7743L23.3399 22.6305L24.4837 23.7743C24.6589 23.9494 24.8885 24.0367 25.1181 24.0367C25.3476 24.0367 25.5772 23.9494 25.7524 23.7743C26.1028 23.4239 26.1028 22.8559 25.7524 22.5055L24.6087 21.3612L25.7524 20.2168C26.1028 19.8665 26.1028 19.2985 25.7524 18.9481C25.4021 18.5983 24.8347 18.5983 24.4843 18.9481L23.3405 20.0919L22.1968 18.9481C21.8464 18.5977 21.279 18.5983 20.9286 18.9481C20.5783 19.2985 20.5783 19.8665 20.9286 20.2168L22.0724 21.3612L20.9286 22.5055C20.5771 22.8559 20.5771 23.4239 20.9274 23.7743Z" fill="white"/>
<path d="M57.6684 21.6064C57.5231 21.6064 57.3808 21.6178 57.2385 21.628V12.1197C57.2385 11.6241 56.8367 11.2229 56.3416 11.2229H34.0726H11.8037C11.3086 11.2229 10.9068 11.6241 10.9068 12.1197V21.6668C10.6491 21.631 10.3884 21.6064 10.1212 21.6064C6.96733 21.6064 4.40118 24.172 4.40118 27.3253C4.40118 29.8627 6.12251 32.0898 8.51466 32.7936V44.3358C8.51466 46.6676 10.108 48.5653 12.0667 48.5653C12.1074 48.5653 12.1474 48.5599 12.1881 48.5587C12.2108 48.5605 12.2329 48.5653 12.2563 48.5653H55.7258C57.6833 48.5653 59.2761 46.6682 59.2761 44.3358V32.7936C61.6682 32.0898 63.3896 29.8627 63.3896 27.3253C63.389 24.172 60.8228 21.6064 57.6684 21.6064ZM55.4448 22.0573C53.394 22.9266 51.9519 24.9612 51.9519 27.3259C51.9519 27.4442 51.943 27.6601 51.9328 27.922C51.8826 29.1877 51.8718 29.8896 51.9513 30.3117L51.94 33.0309H34.9689V13.0178H55.4442L55.4448 22.0573ZM15.898 44.4315L15.8573 34.824H51.9334L51.8939 44.4357C51.8939 45.2954 52.1546 46.1026 52.5905 46.7722H15.2003C15.6373 46.1008 15.898 45.293 15.898 44.4315ZM12.7005 13.0172H33.1758V33.0303H15.8496L15.8382 30.3111C15.9171 29.889 15.907 29.1877 15.8567 27.922C15.846 27.6601 15.8376 27.4442 15.8376 27.3259C15.8376 25.1017 14.5587 23.1747 12.7005 22.2294V13.0172ZM10.3077 44.3358V32.0749C10.3077 31.6307 9.98248 31.2528 9.54303 31.1876C7.63397 30.9042 6.19425 29.2439 6.19425 27.3253C6.19425 25.1609 7.95564 23.4001 10.1206 23.4001C10.5881 23.4001 11.0354 23.4868 11.4515 23.6375C11.4551 23.6393 11.4587 23.6399 11.4623 23.6417C12.9654 24.1917 14.0433 25.6332 14.0433 27.3253C14.0433 27.4574 14.0529 27.6989 14.0637 27.9919C14.084 28.5031 14.1312 29.7001 14.081 29.9554C14.0553 30.0403 14.0428 30.1282 14.0433 30.2167L14.1037 44.4351C14.1037 45.7725 13.0275 46.7716 12.0661 46.7716C11.1131 46.7716 10.3077 45.656 10.3077 44.3358ZM58.2471 31.1876C57.8077 31.2528 57.4824 31.6307 57.4824 32.0749V44.3358C57.4824 45.656 56.6777 46.7716 55.7258 46.7716C54.762 46.7716 53.6882 45.812 53.6882 44.4387L53.7468 30.2167C53.7474 30.1276 53.7402 30.0624 53.7145 29.9775C53.6577 29.6995 53.7055 28.5031 53.7259 27.9925C53.7378 27.6995 53.7468 27.4574 53.7468 27.3253C53.7468 25.5722 54.9013 24.0847 56.4893 23.5825C56.5473 23.5729 56.6035 23.558 56.6573 23.5376C56.9808 23.4509 57.3186 23.4001 57.669 23.4001C59.8345 23.4001 61.5959 25.1609 61.5959 27.3253C61.5953 29.2439 60.1562 30.9042 58.2471 31.1876Z" fill="white"/>
<path d="M43.6873 21.3619L42.5435 22.5063C42.1932 22.8566 42.1932 23.4246 42.5435 23.775C42.7187 23.9496 42.9483 24.0375 43.1779 24.0375C43.4075 24.0375 43.6371 23.9502 43.8123 23.775L44.956 22.6312L46.0998 23.775C46.275 23.9502 46.5046 24.0375 46.7341 24.0375C46.9637 24.0375 47.1933 23.9502 47.3685 23.775C47.7189 23.4246 47.7189 22.8566 47.3685 22.5063L46.2247 21.3619L47.3685 20.2175C47.7189 19.8672 47.7189 19.2992 47.3685 18.9488C47.0181 18.5991 46.4508 18.5991 46.1004 18.9488L44.9566 20.0926L43.8129 18.9488C43.4625 18.5985 42.8951 18.5991 42.5447 18.9488C42.1944 19.2992 42.1944 19.8672 42.5447 20.2175L43.6873 21.3619Z" fill="white"/>
</g>
<defs>
<filter id="filter0_d" x="0" y="0" width="68" height="68" filterUnits="userSpaceOnUse" color-interpolation-filters="sRGB">
<feFlood flood-opacity="0" result="BackgroundImageFix"/>
<feColorMatrix in="SourceAlpha" type="matrix" values="0 0 0 0 0 0 0 0 0 0 0 0 0 0 0 0 0 0 127 0"/>
<feOffset dy="4"/>
<feGaussianBlur stdDeviation="2"/>
<feColorMatrix type="matrix" values="0 0 0 0 0 0 0 0 0 0 0 0 0 0 0 0 0 0 0.25 0"/>
<feBlend mode="normal" in2="BackgroundImageFix" result="effect1_dropShadow"/>
<feBlend mode="normal" in="SourceGraphic" in2="effect1_dropShadow" result="shape"/>
</filter>
</defs>
</svg>
