<svg width="100" height="100" viewBox="0 0 100 100" fill="none" xmlns="http://www.w3.org/2000/svg">
<path d="M24 4C18.5 4 14 8.5 14 14C14 19.5 18.5 24 24 24C29.5 24 34 19.5 34 14C34 8.5 29.5 4 24 4ZM58 4V8H38V12H92V64H40V68H57L46 90H50L60 70L70 90H74L63 68H94C95.1016 68 96 67.1016 96 66V10C96 8.89844 95.1016 8 94 8H62V4H58ZM24 8C27.3359 8 30 10.6641 30 14C30 17.3359 27.3359 20 24 20C20.6641 20 18 17.3359 18 14C18 10.6641 20.6641 8 24 8ZM15 26C8.94531 26 4 30.9453 4 37V61.625C3.99219 61.7109 3.99219 61.7891 4 61.875V62C3.99219 62.1875 4.01563 62.3828 4.0625 62.5625C4.35938 65.5859 6.90625 68 10 68C10.7031 68 11.3672 67.8516 12 67.625V89C12 92.8438 15.1562 96 19 96C20.9531 96 22.7266 95.1797 24 93.875C25.2734 95.1797 27.0469 96 29 96C32.8438 96 36 92.8438 36 89V38H58C61.2891 38 64 35.2891 64 32C64 28.75 61.3594 26.0703 58.125 26C58.0859 26 58.0391 26 58 26H30C29.2266 25.9922 28.5234 26.4297 28.1875 27.125L24 35.5L19.8125 27.125C19.4766 26.4297 18.7734 25.9922 18 26H15ZM15 30H16.75L22.1875 40.875C22.5156 41.5781 23.2266 42.0312 24 42.0312C24.7734 42.0312 25.4844 41.5781 25.8125 40.875L31.25 30H58C58.0625 30 58.125 30 58.1875 30C59.2266 30.0938 60 30.9375 60 32C60 33.1328 59.1328 34 58 34H34C32.8984 34 32 34.8984 32 36V89C32 90.6797 30.6797 92 29 92C27.4219 92 26.1484 90.8438 26 89.3125V88.8125C26 88.75 26 88.6875 26 88.625V68C26.0234 67.4219 25.7891 66.8672 25.375 66.4766C24.9531 66.0781 24.3828 65.8828 23.8125 65.9375C23.7266 65.9531 23.6406 65.9766 23.5625 66C22.6328 66.2109 21.9766 67.0469 22 68V88.625C21.9922 88.7109 21.9922 88.7891 22 88.875V89.3125C21.8516 90.8438 20.5781 92 19 92C17.3203 92 16 90.6797 16 89V42C16.0156 41.3828 15.7422 40.7969 15.2656 40.4062C14.7969 40.0156 14.1641 39.8672 13.5625 40C12.6328 40.2109 11.9766 41.0469 12 42V61.6875C12 61.75 12 61.8125 12 61.875V62C12 63.1328 11.1328 64 10 64C8.91406 64 8.0625 63.1953 8 62.125C8 62.0859 8 62.0391 8 62C8.01563 61.875 8.01563 61.75 8 61.625V37C8 33.1094 11.1094 30 15 30Z" fill="#1565C0"/>
</svg>
